<svg version="1.1" xmlns="http://www.w3.org/2000/svg" xmlns:xlink="http://www.w3.org/1999/xlink" width="33.36736" height="53.95494" viewBox="0,0,33.36736,53.95494"><g transform="translate(-223.81218,-149.77689)"><g data-paper-data="{&quot;isPaintingLayer&quot;:true}" fill="#e8b226" fill-rule="nonzero" stroke-linecap="butt" stroke-linejoin="miter" stroke-miterlimit="10" stroke-dasharray="" stroke-dashoffset="0" style="mix-blend-mode: normal"><path d="M226.81218,168.62683h3.3h3.4l1.6,1.7l1.5,1.8l1.2,8c1.4,9.4 3.1,14 6.7,17.7l2.7,2.8h-3.2h-3.2l-1.7,-2.6c-0.9,-1.5 -2.2,-5.2 -2.9,-8.3l-1.1,-5.6l-1.5,3.5c-0.9,1.9 -2.6,5.6 -3.7,8.2l-2.2,4.8h-1.9c-1.1,0 -2,-0.4 -2,-0.8c0,-0.4 2.5,-5.2 5.6,-10.6l5.6,-9.8l-0.9,-3.2l-0.9,-3.1l-3.2,-0.3l-3.2,-0.3v-2z" stroke="none" stroke-width="1"/><text transform="translate(239.32885,191.83137) scale(0.9917,0.9917)" font-size="40" xml:space="preserve" fill="#e8b226" fill-rule="nonzero" stroke-opacity="0" stroke="#000000" stroke-width="0" stroke-linecap="butt" stroke-linejoin="miter" stroke-miterlimit="10" stroke-dasharray="" stroke-dashoffset="0" font-family="Sans Serif" font-weight="normal" text-anchor="start" style="mix-blend-mode: normal"><tspan x="0" dy="0">r</tspan></text><path d="M227.64551,160.06016c0,-1.84095 1.49238,-3.33333 3.33333,-3.33333c1.84095,0 3.33333,1.49238 3.33333,3.33333c0,1.84095 -1.49238,3.33333 -3.33333,3.33333c-1.84095,0 -3.33333,-1.49238 -3.33333,-3.33333z" stroke="none" stroke-width="0"/></g></g></svg>